<svg xmlns="http://www.w3.org/2000/svg" viewBox="0 0 24 24" fill="none" stroke="#c0873f" stroke-width="1.6" stroke-linecap="round" stroke-linejoin="round">
  <path d="M22 7.7C21.85 7.09 21.75 6.31 21.39 6.01M21.91 7.89C22.14 7.29 21.67 6.23 20.96 6.19M21.12 6.14C19.01 4.92 16.9 3.43 14.9 2.34M21.19 6.16C19.23 5.03 17.33 3.75 14.93 2.32M14.9 2.3C14.41 1.81 13.94 2.13 13.19 2.39M14.93 2.47C14.52 2.05 13.65 1.98 12.94 2.3M13.34 2.35C9.24 4.55 5.12 6.9 2.79 8.24M13.17 2.32C10.94 3.66 8.5 5 2.96 8.32M2.9 8.3C2.21 8.27 2.12 9.25 1.98 9.49M2.75 8.3C2.52 8.52 1.99 9.28 1.93 9.73M2.05 9.67C1.98 10.98 1.98 12.38 1.99 16.26M1.96 9.66C2.01 11.12 2.03 12.56 2.01 16.27M2 16.3C1.89 16.65 2.44 17.3 2.58 17.91M2.14 16.14C1.9 16.76 2.37 17.64 2.78 18.04M2.83 17.88C5.03 19.1 7.22 20.54 9.09 21.69M2.8 17.81C4.48 18.88 6.14 19.93 9.08 21.69M9.1 21.7C9.59 21.83 10.32 21.8 10.7 21.84M9.25 21.84C9.4 22.06 10.34 22.06 10.84 21.74M10.71 21.65C14.41 19.55 18.11 17.48 21.15 15.69M10.77 21.68C13.68 20.06 16.64 18.31 21.15 15.66M21.1 15.7C21.73 15.21 22.11 14.94 21.8 13.96M21.12 15.47C21.57 15.19 21.82 14.61 22.15 13.94M22.06 14.13C22.08 12.03 21.95 9.99 21.98 7.74M21.97 14.22C21.98 12.2 21.97 10.26 21.99 7.67"/>
  <path d="M10 21.96C9.93 18.87 10.08 15.82 10 14.05M10.02 21.92C9.98 18.94 9.97 16.05 10.03 14.02M10.01 14.09C8.38 12.98 6.71 12 2.2 9.19M10 14.02C8.08 12.76 6.2 11.65 2.11 9.14"/>
  <path d="M10 14.11C14.38 11.32 19.16 8.63 21.89 7.19M10.04 14.03C14.37 11.38 18.74 8.88 21.96 7.13"/>
  <path d="M14 19.86C13.93 16.69 14.08 13.57 14 11.75M14.02 19.82C13.98 16.76 13.97 13.8 14.03 11.72"/>
  <path d="M18 17.56C17.93 14.39 18.08 11.27 18 9.45M18.02 17.52C17.98 14.46 17.97 11.5 18.03 9.42"/>
</svg>
